# xmcd
#
# Track frame offsets:
#	150
#	14345
#	29174
#	44522
#	58842
#	73512
#	87174
#	101431
#	117836
#	144341
#	158832
#	172630
#	190708
#	205389
#	219253
#	231598
#	247045
#	262029
#	277037
#	290709
#
# Disc length: 4075 seconds
#
# Revision: 1
# Processed by: cddbd v1.5.2PL0 Copyright (c) Steve Scherf et al.
# Submitted via: audiograbber 1.83.01
#
DISCID=2e0fe914
DTITLE=EDEL REIS - AS 20 MAIS - VOL. 1
DYEAR=1900
DGENRE=BREGA
TTITLE0=PRONTO SOCORRO DO AMOR
TTITLE1=MADAME
TTITLE2=MOTORISTA CARONEIRO
TTITLE3=O CORNO DESPEITADO
TTITLE4=APERTO DE MÃO
TTITLE5=MEU CORAÇÃO DOEU
TTITLE6=A MULHER QUE JURAVA ME AMAR
TTITLE7=VOU MORAR NO BREGA
TTITLE8=HISTÓRIA DE VIDA
TTITLE9=AINDA CHORO POR ELA
TTITLE10=APAIXONADO SEMPRE
TTITLE11=DUELO DE AMOR
TTITLE12=CHUVA DE VERÃO
TTITLE13=ESTRELA MAIOR
TTITLE14=FIQUEI SOZINHO
TTITLE15=O BIRITEIRO
TTITLE16=NÃO DEI SORTE NO AMOR
TTITLE17=TODO CAMINHO VAI PRO BAR
TTITLE18=NOITE ESTRELADA
TTITLE19=VIDA DE CORNO
EXTD=
EXTT0=
EXTT1=
EXTT2=
EXTT3=
EXTT4=
EXTT5=
EXTT6=
EXTT7=
EXTT8=
EXTT9=
EXTT10=
EXTT11=
EXTT12=
EXTT13=
EXTT14=
EXTT15=
EXTT16=
EXTT17=
EXTT18=
EXTT19=
PLAYORDER=
